<svg width="25" height="26" viewBox="0 0 25 26" fill="none" xmlns="http://www.w3.org/2000/svg">
<path d="M5.50963 13.9414L16.8863 13.8341L11.9629 18.8513C11.5694 19.2523 11.5756 19.9041 11.9765 20.2976C12.3775 20.6911 13.0192 20.685 13.4126 20.2841L20.0613 13.5088C20.4548 13.1078 20.4487 12.4662 20.0478 12.0727L13.2725 5.42405C12.8715 5.03058 12.2299 5.03663 11.8364 5.43759C11.6475 5.62968 11.5428 5.88904 11.5453 6.15845C11.5478 6.42786 11.6574 6.6852 11.85 6.87369L16.8671 11.7971L5.49043 11.9044C4.93025 11.9097 4.47624 12.3723 4.48152 12.9325C4.48681 13.4927 4.94946 13.9467 5.50963 13.9414Z" fill="#2E2AEB"/>
</svg>
