<svg width="42" height="39" viewBox="0 0 42 39" fill="none" xmlns="http://www.w3.org/2000/svg">
<g clip-path="url(#clip0_6_191)">
<path d="M8.1781 13.4556C7.83656 12.885 8.02084 12.1512 8.59143 11.8096L13.3964 8.93352C13.967 8.59198 14.7008 8.77626 15.0424 9.34685C15.3839 9.91744 15.1996 10.6513 14.629 10.9928L13.9426 11.4037L22.1023 14.9109L27.096 11.9218C27.4264 11.724 27.7884 11.5889 28.1666 11.5199L33.5304 10.5411C34.0038 10.4559 34.4821 10.6707 34.7286 11.0826C34.9751 11.4945 34.9386 12.0175 34.6397 12.3945L31.243 16.6595C31.0035 16.9602 30.7133 17.2154 30.383 17.4132L25.3892 20.4023L24.6253 29.2508L25.3117 28.8399C25.8823 28.4984 26.6162 28.6827 26.9577 29.2533C27.2992 29.8239 27.115 30.5577 26.5444 30.8992L21.7394 33.7753C21.1688 34.1169 20.435 33.9326 20.0934 33.362C19.7519 32.7914 19.9362 32.0576 20.5067 31.716L20.85 31.5106L17.1521 25.3328L15.7792 26.1545L14.8389 29.899C14.7356 30.3105 14.4754 30.6644 14.1107 30.8827L13.3042 31.3654C12.5448 31.82 11.5641 31.5737 11.1096 30.8143L9.46608 28.0686C8.70672 28.5232 7.72601 28.2769 7.27148 27.5175C6.81695 26.7582 7.06323 25.7774 7.82259 25.3229L6.1791 22.5772C5.72457 21.8178 5.97084 20.8371 6.73021 20.3826L7.53247 19.9024C7.89713 19.6841 8.33195 19.622 8.74344 19.7253L12.4923 20.6631L13.8651 19.8413L10.1673 13.6635L9.82405 13.8689C9.25346 14.2105 8.51964 14.0262 8.1781 13.4556ZM10.2927 24.7767C9.91521 25.0027 9.79121 25.4965 10.0172 25.874C10.2432 26.2516 10.737 26.3756 11.1145 26.1496L13.8602 24.5061C14.2377 24.2801 14.3617 23.7863 14.1358 23.4088C13.9098 23.0313 13.416 22.9073 13.0385 23.1332L10.2927 24.7767Z" fill="#0CD68A"/>
</g>
<defs>
<clipPath id="clip0_6_191">
<rect width="32" height="25.6" fill="white" transform="translate(0.69751 16.5347) rotate(-30.9033)"/>
</clipPath>
</defs>
</svg>
