<svg width="16" height="16" viewBox="0 0 16 16" fill="none" xmlns="http://www.w3.org/2000/svg">
<path fill-rule="evenodd" clip-rule="evenodd" d="M11.3758 5.53207C11.2628 5.65812 11.1045 5.73417 10.9355 5.74351C10.7665 5.75285 10.6007 5.69471 10.4746 5.58187C10.024 5.17886 9.46822 4.91207 8.87193 4.81256C8.27564 4.71304 7.66335 4.78488 7.1063 5.01973C6.54924 5.25458 6.07032 5.64277 5.72525 6.13915C5.38019 6.63553 5.18316 7.21969 5.15709 7.82366C5.13102 8.42763 5.27699 9.0266 5.578 9.55086C5.87902 10.0751 6.32271 10.5031 6.85746 10.7851C7.39221 11.0671 7.99603 11.1914 8.59868 11.1436C9.20133 11.0959 9.77802 10.878 10.2617 10.5153V8.59988H8.34628C8.17695 8.59988 8.01456 8.53262 7.89482 8.41288C7.77509 8.29315 7.70782 8.13075 7.70782 7.96142C7.70782 7.79209 7.77509 7.62969 7.89482 7.50996C8.01456 7.39023 8.17695 7.32296 8.34628 7.32296H10.9001C11.0695 7.32296 11.2319 7.39023 11.3516 7.50996C11.4713 7.62969 11.5386 7.79209 11.5386 7.96142V10.8166C11.5386 10.9065 11.5196 10.9953 11.4829 11.0773C11.4462 11.1594 11.3927 11.2327 11.3257 11.2926C10.6826 11.8678 9.88682 12.2445 9.03436 12.3774C8.1819 12.5102 7.3092 12.3935 6.52162 12.0413C5.73404 11.689 5.06525 11.1164 4.59596 10.3924C4.12667 9.66848 3.87695 8.82417 3.87695 7.96142C3.87695 7.09867 4.12667 6.25436 4.59596 5.53041C5.06525 4.80646 5.73404 4.23381 6.52162 3.88159C7.3092 3.52937 8.1819 3.41264 9.03436 3.54549C9.88682 3.67834 10.6826 4.05508 11.3257 4.63025C11.4519 4.74311 11.5281 4.90149 11.5376 5.07056C11.5471 5.23962 11.489 5.40552 11.3761 5.53176L11.3758 5.53207Z" fill="black"/>
</svg>
