<svg width="25" height="25" viewBox="0 0 25 25" fill="none" xmlns="http://www.w3.org/2000/svg">
<path d="M22.6427 6.59125C21.8727 6.94125 21.0427 7.17125 20.1827 7.28125C21.0627 6.75125 21.7427 5.91125 22.0627 4.90125C21.2327 5.40125 20.3127 5.75125 19.3427 5.95125C18.5527 5.09125 17.4427 4.59125 16.1827 4.59125C13.8327 4.59125 11.9127 6.51125 11.9127 8.88125C11.9127 9.22125 11.9527 9.55125 12.0227 9.86125C8.46266 9.68125 5.29266 7.97125 3.18266 5.38125C2.81266 6.01125 2.60266 6.75125 2.60266 7.53125C2.60266 9.02125 3.35266 10.3412 4.51266 11.0912C3.80266 11.0912 3.14266 10.8912 2.56266 10.5912V10.6212C2.56266 12.7012 4.04266 14.4412 6.00266 14.8312C5.37338 15.0035 4.71275 15.0274 4.07266 14.9012C4.34426 15.7537 4.87619 16.4997 5.59367 17.0342C6.31115 17.5687 7.1781 17.8649 8.07266 17.8812C6.55629 19.0817 4.67665 19.7306 2.74266 19.7212C2.40266 19.7212 2.06266 19.7012 1.72266 19.6612C3.62266 20.8812 5.88266 21.5912 8.30266 21.5912C16.1827 21.5912 20.5127 15.0512 20.5127 9.38125C20.5127 9.19125 20.5127 9.01125 20.5027 8.82125C21.3427 8.22125 22.0627 7.46125 22.6427 6.59125Z" fill="#FF0000"/>
</svg>
