<svg width="16" height="16" viewBox="0 0 16 16" fill="none" xmlns="http://www.w3.org/2000/svg">
<path d="M12.5077 2.21533C12.8464 2.21533 13.1712 2.34986 13.4107 2.58933C13.6501 2.8288 13.7847 3.15359 13.7847 3.49226V12.4307C13.7847 12.7694 13.6501 13.0942 13.4107 13.3336C13.1712 13.5731 12.8464 13.7076 12.5077 13.7076H3.56928C3.23062 13.7076 2.90583 13.5731 2.66636 13.3336C2.42689 13.0942 2.29236 12.7694 2.29236 12.4307V3.49226C2.29236 3.15359 2.42689 2.8288 2.66636 2.58933C2.90583 2.34986 3.23062 2.21533 3.56928 2.21533H12.5077ZM12.1885 12.1115V8.72764C12.1885 8.17562 11.9692 7.64621 11.5789 7.25588C11.1886 6.86554 10.6591 6.64626 10.1071 6.64626C9.56444 6.64626 8.93236 6.97825 8.6259 7.47625V6.76756H6.84459V12.1115H8.6259V8.96387C8.6259 8.47225 9.02174 8.07002 9.51336 8.07002C9.75042 8.07002 9.97777 8.1642 10.1454 8.33183C10.313 8.49945 10.4072 8.72681 10.4072 8.96387V12.1115H12.1885ZM4.76959 5.76518C5.05406 5.76518 5.32689 5.65217 5.52804 5.45102C5.7292 5.24986 5.8422 4.97704 5.8422 4.69256C5.8422 4.09879 5.36336 3.61356 4.76959 3.61356C4.48342 3.61356 4.20897 3.72724 4.00662 3.92959C3.80427 4.13195 3.69059 4.40639 3.69059 4.69256C3.69059 5.28633 4.17582 5.76518 4.76959 5.76518ZM5.65705 12.1115V6.76756H3.88851V12.1115H5.65705Z" fill="black"/>
</svg>
