<svg width="158" height="39" viewBox="0 0 158 39" fill="none" xmlns="http://www.w3.org/2000/svg">
<path d="M0.72 29.5V1.5H11.08C13.32 1.5 15.1733 1.87333 16.64 2.62C18.1067 3.36666 19.2 4.39333 19.92 5.7C20.64 7.00667 21 8.47333 21 10.1C21 11.6467 20.6533 13.0733 19.96 14.38C19.2667 15.66 18.1867 16.7 16.72 17.5C15.2533 18.2733 13.3733 18.66 11.08 18.66H5.84V29.5H0.72ZM5.84 14.5H10.76C12.5467 14.5 13.8267 14.1133 14.6 13.34C15.4 12.54 15.8 11.46 15.8 10.1C15.8 8.71333 15.4 7.63333 14.6 6.86C13.8267 6.06 12.5467 5.66 10.76 5.66H5.84V14.5ZM27.6569 6.58C26.7235 6.58 25.9502 6.3 25.3369 5.74C24.7502 5.18 24.4569 4.47333 24.4569 3.62C24.4569 2.76667 24.7502 2.07333 25.3369 1.54C25.9502 0.979998 26.7235 0.699999 27.6569 0.699999C28.5902 0.699999 29.3502 0.979998 29.9369 1.54C30.5502 2.07333 30.8569 2.76667 30.8569 3.62C30.8569 4.47333 30.5502 5.18 29.9369 5.74C29.3502 6.3 28.5902 6.58 27.6569 6.58ZM25.0969 29.5V9.66H30.2169V29.5H25.0969ZM33.6809 29.5L40.8809 19.58L33.6809 9.66H39.1609L44.2009 16.7L49.2009 9.66H54.7209L47.4809 19.58L54.7209 29.5H49.2009L44.2009 22.46L39.1609 29.5H33.6809ZM66.4481 29.98C64.5281 29.98 62.7948 29.54 61.2481 28.66C59.7281 27.78 58.5148 26.5667 57.6081 25.02C56.7281 23.4467 56.2881 21.6333 56.2881 19.58C56.2881 17.5267 56.7415 15.7267 57.6481 14.18C58.5548 12.6067 59.7681 11.38 61.2881 10.5C62.8348 9.62 64.5681 9.18 66.4881 9.18C68.3815 9.18 70.0881 9.62 71.6081 10.5C73.1548 11.38 74.3681 12.6067 75.2481 14.18C76.1548 15.7267 76.6081 17.5267 76.6081 19.58C76.6081 21.6333 76.1548 23.4467 75.2481 25.02C74.3681 26.5667 73.1548 27.78 71.6081 28.66C70.0615 29.54 68.3415 29.98 66.4481 29.98ZM66.4481 25.54C67.7815 25.54 68.9415 25.0467 69.9281 24.06C70.9148 23.0467 71.4081 21.5533 71.4081 19.58C71.4081 17.6067 70.9148 16.1267 69.9281 15.14C68.9415 14.1267 67.7948 13.62 66.4881 13.62C65.1281 13.62 63.9548 14.1267 62.9681 15.14C62.0081 16.1267 61.5281 17.6067 61.5281 19.58C61.5281 21.5533 62.0081 23.0467 62.9681 24.06C63.9548 25.0467 65.1148 25.54 66.4481 25.54ZM81.1859 29.5V0.699999H86.3059V29.5H81.1859ZM101.058 29.98C99.1375 29.98 97.4042 29.54 95.8575 28.66C94.3375 27.78 93.1242 26.5667 92.2175 25.02C91.3375 23.4467 90.8975 21.6333 90.8975 19.58C90.8975 17.5267 91.3508 15.7267 92.2575 14.18C93.1642 12.6067 94.3775 11.38 95.8975 10.5C97.4442 9.62 99.1775 9.18 101.098 9.18C102.991 9.18 104.698 9.62 106.218 10.5C107.764 11.38 108.978 12.6067 109.858 14.18C110.764 15.7267 111.218 17.5267 111.218 19.58C111.218 21.6333 110.764 23.4467 109.858 25.02C108.978 26.5667 107.764 27.78 106.218 28.66C104.671 29.54 102.951 29.98 101.058 29.98ZM101.058 25.54C102.391 25.54 103.551 25.0467 104.538 24.06C105.524 23.0467 106.018 21.5533 106.018 19.58C106.018 17.6067 105.524 16.1267 104.538 15.14C103.551 14.1267 102.404 13.62 101.098 13.62C99.7375 13.62 98.5642 14.1267 97.5775 15.14C96.6175 16.1267 96.1375 17.6067 96.1375 19.58C96.1375 21.5533 96.6175 23.0467 97.5775 24.06C98.5642 25.0467 99.7242 25.54 101.058 25.54ZM122.945 23.58C121.985 23.58 121.092 23.4733 120.265 23.26L118.785 24.74C119.239 24.98 119.852 25.18 120.625 25.34C121.399 25.5 122.652 25.66 124.385 25.82C127.025 26.06 128.945 26.6867 130.145 27.7C131.345 28.7133 131.945 30.1133 131.945 31.9C131.945 33.0733 131.625 34.18 130.985 35.22C130.345 36.2867 129.359 37.14 128.025 37.78C126.692 38.4467 124.985 38.78 122.905 38.78C120.079 38.78 117.799 38.2467 116.065 37.18C114.332 36.14 113.465 34.5667 113.465 32.46C113.465 30.6733 114.332 29.1267 116.065 27.82C115.532 27.58 115.065 27.3267 114.665 27.06C114.292 26.7933 113.959 26.5133 113.665 26.22V25.3L117.145 21.62C115.599 20.26 114.825 18.5133 114.825 16.38C114.825 15.0467 115.145 13.8333 115.785 12.74C116.452 11.6467 117.385 10.78 118.585 10.14C119.785 9.5 121.239 9.18 122.945 9.18C124.065 9.18 125.105 9.34 126.065 9.66H133.585V12.78L130.185 13.02C130.719 14.0333 130.985 15.1533 130.985 16.38C130.985 17.7133 130.665 18.9267 130.025 20.02C129.385 21.1133 128.452 21.98 127.225 22.62C126.025 23.26 124.599 23.58 122.945 23.58ZM122.945 19.66C123.985 19.66 124.839 19.38 125.505 18.82C126.199 18.26 126.545 17.46 126.545 16.42C126.545 15.38 126.199 14.58 125.505 14.02C124.839 13.46 123.985 13.18 122.945 13.18C121.852 13.18 120.972 13.46 120.305 14.02C119.639 14.58 119.305 15.38 119.305 16.42C119.305 17.46 119.639 18.26 120.305 18.82C120.972 19.38 121.852 19.66 122.945 19.66ZM118.145 31.94C118.145 32.9267 118.599 33.66 119.505 34.14C120.439 34.6467 121.572 34.9 122.905 34.9C124.185 34.9 125.225 34.6333 126.025 34.1C126.825 33.5933 127.225 32.9 127.225 32.02C127.225 31.3 126.959 30.7 126.425 30.22C125.919 29.74 124.892 29.4467 123.345 29.34C122.252 29.26 121.239 29.14 120.305 28.98C119.532 29.4067 118.972 29.8733 118.625 30.38C118.305 30.8867 118.145 31.4067 118.145 31.94ZM139.799 38.3L144.399 28.18H143.199L135.479 9.66H141.039L146.599 23.62L152.399 9.66H157.839L145.239 38.3H139.799Z" fill="black"/>
</svg>
