<svg width="36" height="36" viewBox="0 0 36 36" fill="none" xmlns="http://www.w3.org/2000/svg">
<path d="M28.7428 10.2544C28.6314 9.81754 28.3147 9.48771 27.9526 9.38656C27.3105 9.20625 24.1895 8.79578 17.5928 8.79578C10.996 8.79578 7.87652 9.20625 7.23003 9.38656C6.87234 9.48624 6.5557 9.81608 6.44282 10.2544C6.28303 10.876 5.86524 13.4795 5.86524 17.5914C5.86524 21.702 6.28303 24.3055 6.44282 24.93C6.55423 25.3654 6.87088 25.6952 7.2315 25.7949C7.87652 25.9767 10.9946 26.3871 17.5913 26.3871C24.1881 26.3871 27.3091 25.9767 27.9541 25.7963C28.3118 25.6967 28.6284 25.3668 28.7413 24.9285C28.9026 24.3069 29.3189 21.6961 29.3189 17.5914C29.3189 13.4868 28.9026 10.8774 28.7428 10.2544ZM31.5823 9.52582C32.2522 12.1381 32.2522 17.5914 32.2522 17.5914C32.2522 17.5914 32.2522 23.0448 31.5823 25.6571C31.21 27.101 30.1208 28.2371 28.7413 28.6212C26.236 29.319 17.5913 29.319 17.5913 29.319C17.5913 29.319 8.95252 29.319 6.44282 28.6212C5.0575 28.2313 3.96977 27.0966 3.60182 25.6571C2.93188 23.0448 2.93188 17.5914 2.93188 17.5914C2.93188 17.5914 2.93188 12.1381 3.60182 9.52582C3.97417 8.08187 5.06337 6.94576 6.44282 6.56168C8.95399 5.86389 17.5928 5.86389 17.5928 5.86389C17.5928 5.86389 26.236 5.86389 28.7413 6.56168C30.1252 6.95162 31.2144 8.08626 31.5823 9.52582ZM14.6609 22.7223V12.4606L23.4566 17.5914L14.6609 22.7223Z" fill="#FF0000"/>
</svg>
