<svg width="32" height="32" viewBox="0 0 32 32" fill="none" xmlns="http://www.w3.org/2000/svg">
<path d="M20.7334 21.0665L20.4714 21.4924L20.4727 21.4931L20.7334 21.0665ZM15.2934 17.7198L15.5554 17.2939L15.5507 17.2911L15.2934 17.7198ZM22.1334 20.7465L22.5568 21.0126L22.5601 21.0072L22.1334 20.7465ZM21.7867 19.3465L22.0475 18.9199L22.0445 18.9181L21.7867 19.3465ZM16.6667 16.2665H16.1667V16.5492L16.409 16.695L16.6667 16.2665ZM14.6534 10.3332L14.1534 10.321V10.3332H14.6534ZM16.0001 2.1665C8.39061 2.1665 2.16675 8.39036 2.16675 15.9998H3.16675C3.16675 8.94265 8.94289 3.1665 16.0001 3.1665V2.1665ZM29.8334 15.9998C29.8334 8.39036 23.6096 2.1665 16.0001 2.1665V3.1665C23.0573 3.1665 28.8334 8.94265 28.8334 15.9998H29.8334ZM16.0001 29.8332C23.6096 29.8332 29.8334 23.6093 29.8334 15.9998H28.8334C28.8334 23.057 23.0573 28.8332 16.0001 28.8332V29.8332ZM2.16675 15.9998C2.16675 23.6093 8.39061 29.8332 16.0001 29.8332V28.8332C8.94289 28.8332 3.16675 23.057 3.16675 15.9998H2.16675ZM20.9954 20.6406L15.5554 17.294L15.0314 18.1457L20.4714 21.4924L20.9954 20.6406ZM21.7101 20.4804C21.5645 20.712 21.244 20.7926 20.9941 20.6399L20.4727 21.4931C21.1828 21.9271 22.1157 21.7143 22.5567 21.0126L21.7101 20.4804ZM21.526 19.7731C21.777 19.9265 21.8521 20.2479 21.7068 20.4858L22.5601 21.0072C23.0014 20.2851 22.7565 19.3532 22.0475 18.9199L21.526 19.7731ZM16.409 16.695L21.529 19.775L22.0445 18.9181L16.9245 15.8381L16.409 16.695ZM16.1667 10.3332V16.2665H17.1667V10.3332H16.1667ZM15.6667 9.83317C15.9373 9.83317 16.1667 10.0626 16.1667 10.3332H17.1667C17.1667 9.51036 16.4896 8.83317 15.6667 8.83317V9.83317ZM15.1533 10.3454C15.1602 10.0629 15.3985 9.83317 15.6667 9.83317V8.83317C14.8416 8.83317 14.1733 9.51013 14.1536 10.321L15.1533 10.3454ZM15.1534 16.5865V10.3332H14.1534V16.5865H15.1534ZM15.5507 17.2911C15.3023 17.1421 15.1534 16.8788 15.1534 16.5865H14.1534C14.1534 17.2276 14.4845 17.8176 15.0362 18.1486L15.5507 17.2911Z" fill="black"/>
</svg>
